<?xml version="1.0" standalone="no"?>
<!DOCTYPE svg PUBLIC "-//W3C//DTD SVG 20010904//EN"
 "http://www.w3.org/TR/2001/REC-SVG-20010904/DTD/svg10.dtd">
<svg version="1.0" xmlns="http://www.w3.org/2000/svg"
 width="425.000000pt" height="425.000000pt" viewBox="0 0 425.000000 425.000000"
 preserveAspectRatio="xMidYMid meet">

<g transform="translate(0.000000,425.000000) scale(0.100000,-0.100000)"
fill="#000000" stroke="none">
<path d="M1275 4220 c-30 -12 -331 -321 -340 -348 -4 -13 -4 -38 -1 -56 6 -33
-13 -12 1056 -1126 245 -256 465 -485 487 -510 l41 -45 -36 -40 c-19 -22 -135
-143 -257 -270 -122 -126 -383 -399 -581 -605 -197 -206 -437 -455 -531 -554
-178 -185 -195 -211 -178 -268 4 -12 80 -96 168 -185 124 -126 168 -164 193
-169 58 -11 -85 -153 1304 1295 377 392 693 725 702 740 10 14 18 40 18 56 0
17 -8 42 -18 56 -14 22 -617 654 -1072 1124 -74 77 -234 244 -355 370 -447
468 -491 512 -522 529 -34 18 -48 19 -78 6z"/>
</g>
</svg>
